# xmcd
#
# Track frame offsets:
#	150
#	17697
#	33631
#	47672
#	65402
#	88742
#	104529
#	120147
#	136138
#	154097
#
# Disc length: 2245 seconds
#
# Revision: 0
# Processed by: cddbd v1.5.2PL0 Copyright (c) Steve Scherf et al.
# Submitted via: EasyCDDAExtractor 15.3.0.1
#
DISCID=7a08c30a
DTITLE=Alejandra Guzman and Gloria Trevi - Versus
DYEAR=2017
DGENRE=Latin
TTITLE0=Alejandra Guzman and Gloria Trevi - Mas Buena
TTITLE1=Alejandra Guzman and Gloria Trevi - Cuando Un Hombre Te Enamora
TTITLE2=Alejandra Guzman and Gloria Trevi - Rivales
TTITLE3=Alejandra Guzman and Gloria Trevi - Satisfecha
TTITLE4=Alejandra Guzman and Gloria Trevi - Güera and La Papa Sin Catsup
TTITLE5=Alejandra Guzman and Gloria Trevi - Soy Tuya
TTITLE6=Alejandra Guzman - Todos Me Miran
TTITLE7=Alejandra Guzman and Gloria Trevi - Esta Si Va Para Ti
TTITLE8=Gloria Trevi - Eternamente Bella
TTITLE9=Alejandra Guzman and Gloria Trevi - Mas Buena Remix
EXTD=
EXTT0=
EXTT1=
EXTT2=
EXTT3=
EXTT4=
EXTT5=
EXTT6=
EXTT7=
EXTT8=
EXTT9=
PLAYORDER=
